<?xml version="1.0" encoding="UTF-8" standalone="no"?>
<!-- Created with Inkscape (http://www.inkscape.org/) -->

<svg
   xmlns:dc="http://purl.org/dc/elements/1.1/"
   xmlns:cc="http://creativecommons.org/ns#"
   xmlns:rdf="http://www.w3.org/1999/02/22-rdf-syntax-ns#"
   xmlns:svg="http://www.w3.org/2000/svg"
   xmlns="http://www.w3.org/2000/svg"
   xmlns:sodipodi="http://sodipodi.sourceforge.net/DTD/sodipodi-0.dtd"
   xmlns:inkscape="http://www.inkscape.org/namespaces/inkscape"
   width="181.72742mm"
   height="175.24565mm"
   viewBox="0 0 643.91605 620.94915"
   id="svg2"
   version="1.1"
   inkscape:version="0.91 r"
   sodipodi:docname="logo.svg">
  <defs
     id="defs4" />
  <sodipodi:namedview
     id="base"
     pagecolor="#ffffff"
     bordercolor="#666666"
     borderopacity="1.0"
     inkscape:pageopacity="0.0"
     inkscape:pageshadow="2"
     inkscape:zoom="0.49497475"
     inkscape:cx="241.80911"
     inkscape:cy="491.46083"
     inkscape:document-units="px"
     inkscape:current-layer="layer1"
     showgrid="false"
     fit-margin-top="5"
     fit-margin-left="5"
     fit-margin-right="5"
     fit-margin-bottom="5"
     inkscape:window-width="1301"
     inkscape:window-height="744"
     inkscape:window-x="65"
     inkscape:window-y="24"
     inkscape:window-maximized="1" />
  <metadata
     id="metadata7">
    <rdf:RDF>
      <cc:Work
         rdf:about="">
        <dc:format>image/svg+xml</dc:format>
        <dc:type
           rdf:resource="http://purl.org/dc/dcmitype/StillImage" />
        <dc:title></dc:title>
      </cc:Work>
    </rdf:RDF>
  </metadata>
  <g
     inkscape:label="Layer 1"
     inkscape:groupmode="layer"
     id="layer1"
     transform="translate(-32.372692,-387.55695)">
    <g
       id="g3375"
       transform="translate(32.190021,43.103671)">
      <path
         inkscape:connector-curvature="0"
         id="path3352"
         d="M 98.285812,874.21275 C 136.22344,733.81473 224.786,611.51997 334.6294,518.01962 399.61003,462.07655 477.29938,410.25375 565.72365,407.19933 c 30.16663,-0.72231 60.73504,21.69701 60.15027,53.70075 0.56674,40.86546 -39.83759,66.66298 -74.05066,79.11584 -65.9785,24.68981 -143.6586,20.61518 -201.0191,65.97073 -58.56832,54.44507 -91.24597,128.82322 -122.43478,200.85955 -20.26661,48.20379 -55.33108,87.51579 -90.37049,125.42251 -25.38462,35.67111 -67.361225,0.50834 -46.66859,-33.76659 2.107333,-8.1564 4.719822,-16.16913 6.955512,-24.28937 z"
         style="fill:#0000ff;fill-rule:evenodd;stroke:#000000;stroke-width:1px;stroke-linecap:butt;stroke-linejoin:miter;stroke-opacity:1" />
      <path
         inkscape:connector-curvature="0"
         id="path3352-0"
         d="M 545.99556,435.64295 C 508.05794,576.04098 419.49536,698.33573 309.65197,791.83609 244.67135,847.77916 166.982,899.60202 78.557728,902.65638 48.391102,903.37867 17.822677,880.95938 18.407455,848.95562 17.840714,808.09017 58.245049,782.29265 92.458117,769.83979 158.43662,745.14997 236.11671,749.2246 293.47721,703.86905 352.04553,649.42398 384.72318,575.04583 415.91199,503.0095 c 20.26661,-48.2038 55.3311,-87.51579 90.3705,-125.42254 25.38463,-35.67115 67.36122,-0.50833 46.66858,33.76662 -2.10733,8.15639 -4.71982,16.16912 -6.95551,24.28937 z"
         style="fill:#ff0000;fill-rule:evenodd;stroke:#000000;stroke-width:1px;stroke-linecap:butt;stroke-linejoin:miter;stroke-opacity:1" />
    </g>
  </g>
</svg>
